<svg xmlns="http://www.w3.org/2000/svg" xmlns:xlink="http://www.w3.org/1999/xlink" width="500" zoomAndPan="magnify" viewBox="0 0 375 374.999991" height="500" preserveAspectRatio="xMidYMid meet" version="1.0"><defs><clipPath id="0ef206b88c"><path d="M 80.886719 71.769531 L 293 71.769531 L 293 273.519531 L 80.886719 273.519531 Z M 80.886719 71.769531 " clip-rule="nonzero"/></clipPath></defs><g clip-path="url(#0ef206b88c)"><path fill="#6190f2" d="M 249.007812 273.441406 C 247.957031 273.449219 246.980469 273.179688 246.082031 272.636719 L 186.9375 236.925781 L 127.792969 272.636719 C 127.324219 272.921875 126.824219 273.128906 126.292969 273.265625 C 125.761719 273.402344 125.21875 273.457031 124.671875 273.433594 C 124.125 273.410156 123.589844 273.308594 123.074219 273.125 C 122.554688 272.945312 122.074219 272.691406 121.632812 272.371094 C 121.1875 272.046875 120.800781 271.667969 120.46875 271.230469 C 120.136719 270.792969 119.875 270.316406 119.683594 269.804688 C 119.492188 269.289062 119.378906 268.757812 119.34375 268.210938 C 119.308594 267.664062 119.355469 267.121094 119.480469 266.589844 L 135.179688 199.265625 L 82.855469 153.96875 C 82.441406 153.609375 82.085938 153.199219 81.792969 152.734375 C 81.5 152.269531 81.28125 151.773438 81.132812 151.246094 C 80.988281 150.71875 80.917969 150.179688 80.929688 149.632812 C 80.945312 149.082031 81.035156 148.546875 81.203125 148.027344 C 81.375 147.503906 81.613281 147.019531 81.929688 146.566406 C 82.242188 146.117188 82.613281 145.722656 83.042969 145.382812 C 83.472656 145.039062 83.941406 144.769531 84.453125 144.566406 C 84.960938 144.363281 85.488281 144.238281 86.035156 144.191406 L 154.890625 138.34375 L 181.804688 74.859375 C 182.054688 74.394531 182.359375 73.96875 182.722656 73.589844 C 183.085938 73.207031 183.496094 72.878906 183.949219 72.605469 C 184.402344 72.335938 184.882812 72.128906 185.390625 71.988281 C 185.898438 71.847656 186.417969 71.777344 186.945312 71.777344 C 187.472656 71.777344 187.988281 71.847656 188.5 71.988281 C 189.007812 72.128906 189.488281 72.335938 189.941406 72.605469 C 190.394531 72.878906 190.800781 73.207031 191.164062 73.589844 C 191.527344 73.96875 191.835938 74.394531 192.082031 74.859375 L 218.988281 138.34375 L 287.851562 144.191406 C 288.398438 144.242188 288.925781 144.367188 289.433594 144.570312 C 289.945312 144.773438 290.414062 145.042969 290.84375 145.386719 C 291.269531 145.726562 291.640625 146.121094 291.953125 146.574219 C 292.265625 147.023438 292.507812 147.507812 292.675781 148.03125 C 292.84375 148.550781 292.933594 149.085938 292.945312 149.636719 C 292.957031 150.183594 292.890625 150.722656 292.742188 151.25 C 292.597656 151.777344 292.375 152.273438 292.082031 152.734375 C 291.789062 153.199219 291.4375 153.609375 291.023438 153.96875 L 238.742188 199.265625 L 254.441406 266.589844 C 254.539062 267 254.585938 267.414062 254.589844 267.832031 C 254.589844 268.253906 254.546875 268.667969 254.453125 269.078125 C 254.363281 269.492188 254.226562 269.886719 254.042969 270.265625 C 253.863281 270.644531 253.640625 271 253.378906 271.328125 C 253.117188 271.65625 252.824219 271.953125 252.496094 272.214844 C 252.167969 272.480469 251.8125 272.703125 251.433594 272.886719 C 251.058594 273.066406 250.664062 273.207031 250.253906 273.300781 C 249.84375 273.394531 249.425781 273.441406 249.007812 273.441406 Z M 186.9375 224.820312 C 187.972656 224.824219 188.933594 225.09375 189.816406 225.632812 L 240.570312 256.253906 L 227.113281 198.515625 C 226.996094 198.023438 226.953125 197.519531 226.972656 197.015625 C 226.996094 196.507812 227.085938 196.011719 227.242188 195.527344 C 227.398438 195.046875 227.621094 194.59375 227.898438 194.171875 C 228.179688 193.746094 228.515625 193.371094 228.898438 193.039062 L 273.734375 154.191406 L 214.691406 149.179688 C 214.1875 149.140625 213.699219 149.03125 213.222656 148.855469 C 212.75 148.683594 212.308594 148.449219 211.894531 148.152344 C 211.484375 147.859375 211.121094 147.515625 210.804688 147.121094 C 210.488281 146.726562 210.226562 146.296875 210.027344 145.832031 L 186.9375 91.332031 L 163.859375 145.800781 C 163.660156 146.265625 163.402344 146.691406 163.085938 147.085938 C 162.765625 147.480469 162.402344 147.824219 161.992188 148.121094 C 161.582031 148.414062 161.140625 148.648438 160.664062 148.824219 C 160.191406 149 159.699219 149.105469 159.195312 149.148438 L 100.152344 154.160156 L 144.992188 193.003906 C 145.375 193.335938 145.707031 193.714844 145.988281 194.136719 C 146.269531 194.558594 146.488281 195.011719 146.644531 195.496094 C 146.800781 195.976562 146.890625 196.472656 146.914062 196.980469 C 146.9375 197.488281 146.890625 197.988281 146.777344 198.484375 L 133.308594 256.253906 L 184.058594 225.632812 C 184.945312 225.09375 185.902344 224.824219 186.9375 224.820312 Z M 186.9375 224.820312 " fill-opacity="1" fill-rule="nonzero"/></g></svg>