<svg xmlns="http://www.w3.org/2000/svg" xmlns:xlink="http://www.w3.org/1999/xlink" width="500" zoomAndPan="magnify" viewBox="0 0 375 374.999991" height="500" preserveAspectRatio="xMidYMid meet" version="1.0"><defs><clipPath id="66208304c2"><path d="M 115.917969 84.691406 L 259.167969 84.691406 L 259.167969 290.191406 L 115.917969 290.191406 Z M 115.917969 84.691406 " clip-rule="nonzero"/></clipPath></defs><path fill="#6190f2" d="M 162.878906 151.867188 L 150.789062 163.957031 L 146.042969 159.210938 C 145.699219 158.867188 145.304688 158.605469 144.855469 158.421875 C 144.40625 158.238281 143.9375 158.148438 143.453125 158.152344 C 142.96875 158.152344 142.503906 158.246094 142.054688 158.433594 C 141.609375 158.617188 141.210938 158.882812 140.871094 159.226562 C 140.527344 159.566406 140.261719 159.964844 140.078125 160.410156 C 139.890625 160.859375 139.796875 161.324219 139.792969 161.808594 C 139.792969 162.292969 139.882812 162.761719 140.066406 163.210938 C 140.25 163.660156 140.511719 164.054688 140.855469 164.398438 L 148.195312 171.742188 C 148.539062 172.085938 148.9375 172.351562 149.386719 172.539062 C 149.835938 172.722656 150.304688 172.816406 150.789062 172.816406 C 151.277344 172.816406 151.746094 172.722656 152.195312 172.539062 C 152.644531 172.351562 153.042969 172.085938 153.386719 171.742188 L 168.070312 157.058594 C 168.402344 156.710938 168.65625 156.316406 168.832031 155.871094 C 169.011719 155.421875 169.097656 154.960938 169.089844 154.480469 C 169.085938 154 168.992188 153.539062 168.804688 153.09375 C 168.617188 152.652344 168.355469 152.261719 168.015625 151.921875 C 167.675781 151.582031 167.285156 151.320312 166.84375 151.132812 C 166.398438 150.945312 165.9375 150.851562 165.457031 150.847656 C 164.976562 150.839844 164.515625 150.925781 164.066406 151.105469 C 163.621094 151.28125 163.226562 151.535156 162.878906 151.867188 Z M 162.878906 151.867188 " fill-opacity="1" fill-rule="nonzero"/><path fill="#6190f2" d="M 162.878906 195.917969 L 150.789062 208.003906 L 146.042969 203.257812 C 145.699219 202.917969 145.304688 202.65625 144.855469 202.472656 C 144.40625 202.289062 143.9375 202.199219 143.453125 202.199219 C 142.96875 202.199219 142.503906 202.292969 142.054688 202.480469 C 141.609375 202.667969 141.210938 202.929688 140.871094 203.273438 C 140.527344 203.617188 140.261719 204.011719 140.078125 204.460938 C 139.890625 204.90625 139.796875 205.375 139.796875 205.859375 C 139.792969 206.34375 139.882812 206.808594 140.066406 207.257812 C 140.25 207.707031 140.511719 208.101562 140.855469 208.449219 L 148.195312 215.789062 C 148.539062 216.132812 148.9375 216.398438 149.386719 216.585938 C 149.835938 216.773438 150.304688 216.863281 150.789062 216.863281 C 151.277344 216.863281 151.746094 216.773438 152.195312 216.585938 C 152.644531 216.398438 153.042969 216.132812 153.386719 215.789062 L 168.070312 201.105469 C 168.402344 200.761719 168.65625 200.363281 168.832031 199.917969 C 169.011719 199.472656 169.097656 199.007812 169.089844 198.527344 C 169.085938 198.046875 168.992188 197.585938 168.804688 197.144531 C 168.617188 196.699219 168.355469 196.308594 168.015625 195.96875 C 167.675781 195.628906 167.285156 195.367188 166.84375 195.179688 C 166.398438 194.996094 165.9375 194.898438 165.457031 194.894531 C 164.976562 194.890625 164.515625 194.976562 164.066406 195.152344 C 163.621094 195.328125 163.226562 195.582031 162.878906 195.917969 Z M 162.878906 195.917969 " fill-opacity="1" fill-rule="nonzero"/><path fill="#6190f2" d="M 162.878906 239.964844 L 150.789062 252.050781 L 146.042969 247.304688 C 145.699219 246.964844 145.304688 246.703125 144.855469 246.519531 C 144.40625 246.335938 143.9375 246.246094 143.453125 246.246094 C 142.96875 246.25 142.503906 246.34375 142.054688 246.527344 C 141.609375 246.714844 141.210938 246.980469 140.871094 247.320312 C 140.527344 247.664062 140.261719 248.058594 140.078125 248.507812 C 139.890625 248.953125 139.796875 249.421875 139.796875 249.90625 C 139.792969 250.390625 139.882812 250.855469 140.066406 251.304688 C 140.25 251.753906 140.511719 252.152344 140.855469 252.496094 L 148.195312 259.835938 C 148.539062 260.183594 148.9375 260.445312 149.386719 260.632812 C 149.835938 260.820312 150.304688 260.914062 150.789062 260.914062 C 151.277344 260.914062 151.746094 260.820312 152.195312 260.632812 C 152.644531 260.445312 153.042969 260.183594 153.386719 259.835938 L 168.070312 245.15625 C 168.402344 244.808594 168.65625 244.410156 168.832031 243.964844 C 169.011719 243.519531 169.097656 243.054688 169.089844 242.574219 C 169.085938 242.09375 168.992188 241.632812 168.804688 241.191406 C 168.617188 240.746094 168.355469 240.355469 168.015625 240.015625 C 167.675781 239.675781 167.285156 239.414062 166.84375 239.226562 C 166.398438 239.042969 165.9375 238.945312 165.457031 238.941406 C 164.976562 238.9375 164.515625 239.023438 164.066406 239.199219 C 163.621094 239.378906 163.226562 239.632812 162.878906 239.964844 Z M 162.878906 239.964844 " fill-opacity="1" fill-rule="nonzero"/><path fill="#6190f2" d="M 183.828125 161.804688 C 183.828125 162.292969 183.917969 162.761719 184.105469 163.210938 C 184.292969 163.660156 184.558594 164.058594 184.902344 164.402344 C 185.246094 164.746094 185.644531 165.011719 186.09375 165.195312 C 186.542969 165.382812 187.011719 165.476562 187.496094 165.476562 L 231.546875 165.476562 C 232.03125 165.476562 232.5 165.382812 232.949219 165.195312 C 233.398438 165.011719 233.796875 164.746094 234.140625 164.402344 C 234.484375 164.054688 234.75 163.660156 234.9375 163.210938 C 235.125 162.761719 235.214844 162.292969 235.214844 161.804688 C 235.214844 161.316406 235.125 160.851562 234.9375 160.398438 C 234.75 159.949219 234.484375 159.554688 234.140625 159.210938 C 233.796875 158.867188 233.398438 158.601562 232.949219 158.414062 C 232.5 158.226562 232.03125 158.132812 231.546875 158.132812 L 187.496094 158.132812 C 187.011719 158.132812 186.542969 158.226562 186.09375 158.414062 C 185.644531 158.601562 185.246094 158.863281 184.902344 159.210938 C 184.558594 159.554688 184.292969 159.949219 184.105469 160.398438 C 183.917969 160.851562 183.828125 161.316406 183.828125 161.804688 Z M 183.828125 161.804688 " fill-opacity="1" fill-rule="nonzero"/><path fill="#6190f2" d="M 231.546875 202.183594 L 187.496094 202.183594 C 187.011719 202.183594 186.542969 202.277344 186.09375 202.460938 C 185.644531 202.648438 185.246094 202.914062 184.902344 203.257812 C 184.558594 203.601562 184.292969 204 184.105469 204.449219 C 183.917969 204.898438 183.828125 205.367188 183.828125 205.851562 C 183.828125 206.339844 183.917969 206.808594 184.105469 207.257812 C 184.292969 207.707031 184.558594 208.105469 184.902344 208.449219 C 185.246094 208.792969 185.644531 209.058594 186.09375 209.246094 C 186.542969 209.429688 187.011719 209.523438 187.496094 209.523438 L 231.546875 209.523438 C 232.027344 209.515625 232.488281 209.414062 232.929688 209.222656 C 233.371094 209.035156 233.757812 208.765625 234.09375 208.421875 C 234.433594 208.082031 234.691406 207.6875 234.871094 207.242188 C 235.054688 206.796875 235.144531 206.332031 235.144531 205.851562 C 235.144531 205.371094 235.054688 204.910156 234.871094 204.464844 C 234.691406 204.019531 234.433594 203.625 234.09375 203.28125 C 233.757812 202.9375 233.371094 202.671875 232.929688 202.480469 C 232.488281 202.292969 232.027344 202.191406 231.546875 202.183594 Z M 231.546875 202.183594 " fill-opacity="1" fill-rule="nonzero"/><path fill="#6190f2" d="M 231.546875 246.230469 L 187.496094 246.230469 C 187.011719 246.230469 186.542969 246.324219 186.09375 246.511719 C 185.644531 246.695312 185.246094 246.960938 184.902344 247.304688 C 184.558594 247.648438 184.292969 248.046875 184.105469 248.496094 C 183.917969 248.945312 183.828125 249.414062 183.828125 249.902344 C 183.828125 250.386719 183.917969 250.855469 184.105469 251.304688 C 184.292969 251.753906 184.558594 252.152344 184.902344 252.496094 C 185.246094 252.839844 185.644531 253.105469 186.09375 253.292969 C 186.542969 253.480469 187.011719 253.570312 187.496094 253.570312 L 231.546875 253.570312 C 232.027344 253.5625 232.488281 253.460938 232.929688 253.273438 C 233.371094 253.082031 233.757812 252.816406 234.09375 252.472656 C 234.429688 252.128906 234.691406 251.734375 234.871094 251.289062 C 235.054688 250.84375 235.144531 250.382812 235.144531 249.902344 C 235.144531 249.421875 235.054688 248.957031 234.871094 248.511719 C 234.691406 248.066406 234.429688 247.671875 234.09375 247.332031 C 233.757812 246.988281 233.371094 246.71875 232.929688 246.53125 C 232.488281 246.339844 232.027344 246.238281 231.546875 246.230469 Z M 231.546875 246.230469 " fill-opacity="1" fill-rule="nonzero"/><g clip-path="url(#66208304c2)"><path fill="#6190f2" d="M 219.3125 99.402344 L 205.480469 99.402344 C 205.261719 98.382812 204.957031 97.386719 204.570312 96.417969 C 204.179688 95.449219 203.710938 94.519531 203.164062 93.628906 C 202.617188 92.742188 202 91.90625 201.3125 91.121094 C 200.621094 90.335938 199.871094 89.617188 199.058594 88.960938 C 198.246094 88.304688 197.382812 87.71875 196.472656 87.210938 C 195.5625 86.703125 194.613281 86.273438 193.628906 85.925781 C 192.644531 85.578125 191.636719 85.316406 190.609375 85.136719 C 189.578125 84.960938 188.542969 84.875 187.496094 84.875 C 186.453125 84.875 185.417969 84.960938 184.386719 85.136719 C 183.359375 85.316406 182.351562 85.578125 181.367188 85.925781 C 180.382812 86.273438 179.433594 86.703125 178.523438 87.210938 C 177.609375 87.722656 176.75 88.304688 175.9375 88.960938 C 175.125 89.617188 174.375 90.335938 173.683594 91.121094 C 172.996094 91.90625 172.375 92.742188 171.828125 93.632812 C 171.28125 94.519531 170.8125 95.449219 170.425781 96.417969 C 170.035156 97.386719 169.734375 98.382812 169.511719 99.402344 L 155.683594 99.402344 C 155.203125 99.402344 154.726562 99.453125 154.253906 99.546875 C 153.78125 99.640625 153.320312 99.78125 152.875 99.964844 C 152.429688 100.148438 152.007812 100.375 151.605469 100.644531 C 151.207031 100.910156 150.835938 101.214844 150.496094 101.554688 C 150.15625 101.898438 149.851562 102.269531 149.582031 102.667969 C 149.3125 103.070312 149.089844 103.492188 148.902344 103.9375 C 148.71875 104.382812 148.578125 104.839844 148.484375 105.3125 C 148.390625 105.785156 148.34375 106.261719 148.34375 106.746094 L 148.34375 110.414062 L 130.601562 110.414062 C 129.636719 110.417969 128.683594 110.511719 127.738281 110.699219 C 126.792969 110.890625 125.875 111.167969 124.984375 111.539062 C 124.09375 111.90625 123.25 112.359375 122.449219 112.894531 C 121.648438 113.429688 120.90625 114.039062 120.222656 114.71875 C 119.542969 115.402344 118.933594 116.144531 118.398438 116.945312 C 117.863281 117.746094 117.410156 118.589844 117.042969 119.480469 C 116.671875 120.371094 116.394531 121.289062 116.203125 122.234375 C 116.015625 123.179688 115.921875 124.132812 115.917969 125.097656 L 115.917969 275.597656 C 115.921875 276.558594 116.015625 277.515625 116.203125 278.460938 C 116.394531 279.40625 116.671875 280.320312 117.042969 281.210938 C 117.410156 282.101562 117.863281 282.949219 118.398438 283.75 C 118.933594 284.550781 119.542969 285.292969 120.222656 285.972656 C 120.90625 286.65625 121.648438 287.261719 122.449219 287.800781 C 123.25 288.335938 124.09375 288.789062 124.984375 289.15625 C 125.875 289.527344 126.792969 289.804688 127.738281 289.992188 C 128.683594 290.183594 129.636719 290.277344 130.601562 290.277344 L 244.394531 290.277344 C 245.355469 290.277344 246.3125 290.183594 247.257812 289.992188 C 248.203125 289.804688 249.117188 289.527344 250.007812 289.15625 C 250.898438 288.789062 251.746094 288.335938 252.546875 287.800781 C 253.347656 287.261719 254.089844 286.65625 254.769531 285.972656 C 255.453125 285.292969 256.0625 284.550781 256.597656 283.75 C 257.132812 282.949219 257.585938 282.101562 257.953125 281.210938 C 258.324219 280.320312 258.601562 279.40625 258.789062 278.460938 C 258.980469 277.515625 259.074219 276.558594 259.074219 275.597656 L 259.074219 125.097656 C 259.074219 124.132812 258.980469 123.179688 258.789062 122.234375 C 258.601562 121.289062 258.324219 120.371094 257.953125 119.480469 C 257.585938 118.589844 257.132812 117.746094 256.597656 116.945312 C 256.0625 116.144531 255.453125 115.402344 254.769531 114.71875 C 254.089844 114.039062 253.347656 113.429688 252.546875 112.894531 C 251.746094 112.359375 250.898438 111.90625 250.007812 111.539062 C 249.117188 111.167969 248.203125 110.890625 247.257812 110.699219 C 246.3125 110.511719 245.355469 110.417969 244.394531 110.414062 L 226.652344 110.414062 L 226.652344 106.746094 C 226.652344 106.261719 226.605469 105.785156 226.511719 105.3125 C 226.414062 104.839844 226.277344 104.382812 226.089844 103.9375 C 225.90625 103.492188 225.679688 103.070312 225.414062 102.667969 C 225.144531 102.269531 224.839844 101.898438 224.5 101.554688 C 224.160156 101.214844 223.789062 100.910156 223.386719 100.644531 C 222.988281 100.375 222.5625 100.148438 222.121094 99.964844 C 221.675781 99.78125 221.214844 99.640625 220.742188 99.546875 C 220.269531 99.453125 219.792969 99.402344 219.3125 99.402344 Z M 155.683594 106.746094 L 172.816406 106.746094 C 173.300781 106.746094 173.769531 106.652344 174.21875 106.464844 C 174.667969 106.28125 175.066406 106.015625 175.410156 105.671875 C 175.753906 105.324219 176.019531 104.929688 176.207031 104.480469 C 176.390625 104.03125 176.484375 103.5625 176.484375 103.074219 C 176.492188 102.355469 176.570312 101.644531 176.71875 100.945312 C 176.863281 100.242188 177.078125 99.558594 177.359375 98.898438 C 177.640625 98.238281 177.980469 97.609375 178.382812 97.015625 C 178.785156 96.421875 179.242188 95.871094 179.753906 95.367188 C 180.265625 94.863281 180.820312 94.410156 181.417969 94.015625 C 182.015625 93.621094 182.648438 93.285156 183.3125 93.011719 C 183.976562 92.738281 184.660156 92.53125 185.363281 92.394531 C 186.070312 92.253906 186.78125 92.183594 187.496094 92.183594 C 188.214844 92.183594 188.925781 92.253906 189.628906 92.394531 C 190.335938 92.53125 191.019531 92.738281 191.683594 93.011719 C 192.347656 93.285156 192.980469 93.621094 193.578125 94.015625 C 194.175781 94.410156 194.730469 94.863281 195.242188 95.367188 C 195.75 95.871094 196.207031 96.421875 196.609375 97.015625 C 197.015625 97.609375 197.355469 98.238281 197.636719 98.898438 C 197.917969 99.558594 198.128906 100.242188 198.277344 100.945312 C 198.425781 101.644531 198.5 102.355469 198.507812 103.074219 C 198.507812 103.5625 198.601562 104.03125 198.789062 104.480469 C 198.976562 104.929688 199.238281 105.324219 199.585938 105.671875 C 199.929688 106.015625 200.324219 106.28125 200.773438 106.464844 C 201.226562 106.652344 201.695312 106.746094 202.179688 106.746094 L 219.3125 106.746094 L 219.3125 121.425781 L 155.683594 121.425781 Z M 244.394531 117.757812 C 244.875 117.757812 245.351562 117.804688 245.824219 117.898438 C 246.296875 117.992188 246.757812 118.132812 247.199219 118.316406 C 247.644531 118.503906 248.070312 118.730469 248.46875 118.996094 C 248.871094 119.265625 249.242188 119.570312 249.582031 119.910156 C 249.921875 120.25 250.226562 120.621094 250.496094 121.023438 C 250.761719 121.421875 250.988281 121.84375 251.171875 122.289062 C 251.359375 122.734375 251.496094 123.195312 251.589844 123.667969 C 251.6875 124.140625 251.734375 124.617188 251.734375 125.097656 L 251.734375 275.597656 C 251.734375 276.078125 251.6875 276.554688 251.589844 277.027344 C 251.496094 277.5 251.359375 277.957031 251.171875 278.402344 C 250.988281 278.847656 250.761719 279.273438 250.496094 279.671875 C 250.226562 280.074219 249.921875 280.445312 249.582031 280.785156 C 249.242188 281.125 248.871094 281.429688 248.46875 281.699219 C 248.070312 281.964844 247.644531 282.191406 247.199219 282.375 C 246.757812 282.5625 246.296875 282.699219 245.824219 282.792969 C 245.351562 282.890625 244.875 282.9375 244.394531 282.9375 L 130.601562 282.9375 C 130.121094 282.9375 129.644531 282.890625 129.171875 282.792969 C 128.699219 282.699219 128.238281 282.5625 127.792969 282.375 C 127.347656 282.191406 126.925781 281.964844 126.523438 281.699219 C 126.125 281.429688 125.753906 281.125 125.414062 280.785156 C 125.074219 280.445312 124.769531 280.074219 124.5 279.671875 C 124.234375 279.273438 124.007812 278.847656 123.820312 278.402344 C 123.636719 277.957031 123.496094 277.5 123.402344 277.027344 C 123.308594 276.554688 123.261719 276.078125 123.261719 275.597656 L 123.261719 125.097656 C 123.261719 124.617188 123.308594 124.140625 123.402344 123.667969 C 123.496094 123.195312 123.636719 122.734375 123.820312 122.289062 C 124.007812 121.84375 124.234375 121.421875 124.5 121.023438 C 124.769531 120.621094 125.074219 120.25 125.414062 119.910156 C 125.753906 119.570312 126.125 119.265625 126.523438 118.996094 C 126.925781 118.730469 127.347656 118.503906 127.792969 118.316406 C 128.238281 118.132812 128.699219 117.992188 129.171875 117.898438 C 129.644531 117.804688 130.121094 117.757812 130.601562 117.757812 L 148.34375 117.757812 L 148.34375 121.425781 C 148.34375 121.910156 148.390625 122.386719 148.484375 122.859375 C 148.578125 123.332031 148.71875 123.789062 148.902344 124.234375 C 149.089844 124.679688 149.3125 125.105469 149.582031 125.503906 C 149.851562 125.90625 150.15625 126.277344 150.496094 126.617188 C 150.835938 126.957031 151.207031 127.261719 151.605469 127.527344 C 152.007812 127.796875 152.429688 128.023438 152.875 128.207031 C 153.320312 128.390625 153.78125 128.53125 154.253906 128.625 C 154.726562 128.722656 155.203125 128.769531 155.683594 128.769531 L 219.3125 128.769531 C 219.792969 128.769531 220.269531 128.722656 220.742188 128.625 C 221.214844 128.53125 221.675781 128.390625 222.121094 128.207031 C 222.5625 128.023438 222.988281 127.796875 223.386719 127.527344 C 223.789062 127.261719 224.160156 126.957031 224.5 126.617188 C 224.839844 126.277344 225.144531 125.90625 225.414062 125.503906 C 225.679688 125.105469 225.90625 124.679688 226.089844 124.234375 C 226.277344 123.789062 226.414062 123.332031 226.511719 122.859375 C 226.605469 122.386719 226.652344 121.910156 226.652344 121.425781 L 226.652344 117.757812 Z M 244.394531 117.757812 " fill-opacity="1" fill-rule="nonzero"/></g></svg>