<svg xmlns="http://www.w3.org/2000/svg" xmlns:xlink="http://www.w3.org/1999/xlink" width="500" zoomAndPan="magnify" viewBox="0 0 375 374.999991" height="500" preserveAspectRatio="xMidYMid meet" version="1.0"><defs><clipPath id="15f89d1fc1"><path d="M 105.910156 88.152344 L 269.410156 88.152344 L 269.410156 286.902344 L 105.910156 286.902344 Z M 105.910156 88.152344 " clip-rule="nonzero"/></clipPath></defs><g clip-path="url(#15f89d1fc1)"><path fill="#6190f2" d="M 266.800781 119.359375 L 188.78125 88.847656 C 187.925781 88.511719 187.066406 88.511719 186.210938 88.847656 L 108.191406 119.359375 C 107.859375 119.492188 107.554688 119.664062 107.277344 119.886719 C 107 120.109375 106.761719 120.367188 106.5625 120.660156 C 106.359375 120.953125 106.207031 121.269531 106.101562 121.609375 C 106 121.949219 105.945312 122.296875 105.945312 122.652344 L 105.960938 195.683594 C 108.722656 237.03125 142.515625 276.007812 186.632812 286.28125 C 202.25 283.6875 222.398438 274.796875 241.027344 256.332031 C 245.023438 252.246094 248.640625 247.847656 251.878906 243.140625 C 255.121094 238.429688 257.933594 233.480469 260.320312 228.285156 C 262.707031 223.09375 264.632812 217.734375 266.097656 212.210938 C 267.5625 206.683594 268.546875 201.074219 269.046875 195.382812 L 269.046875 122.652344 C 269.046875 122.296875 268.992188 121.949219 268.890625 121.609375 C 268.785156 121.269531 268.632812 120.953125 268.429688 120.660156 C 268.230469 120.367188 267.992188 120.109375 267.714844 119.886719 C 267.4375 119.664062 267.132812 119.492188 266.800781 119.359375 Z M 235.960938 251.40625 C 232.644531 254.765625 229.117188 257.882812 225.375 260.761719 C 221.632812 263.644531 217.714844 266.257812 213.621094 268.605469 C 209.527344 270.957031 205.292969 273.019531 200.917969 274.792969 C 196.542969 276.570312 192.070312 278.042969 187.496094 279.210938 C 146.710938 269.386719 115.601562 233.21875 113.011719 195.382812 L 113.011719 125.0625 L 187.496094 95.929688 L 261.984375 125.0625 L 261.996094 195.078125 C 261.515625 200.34375 260.59375 205.527344 259.222656 210.632812 C 257.855469 215.738281 256.0625 220.691406 253.84375 225.492188 C 251.625 230.289062 249.015625 234.863281 246.015625 239.214844 C 243.011719 243.566406 239.660156 247.628906 235.960938 251.40625 Z M 235.960938 251.40625 " fill-opacity="1" fill-rule="nonzero"/></g><path fill="#6190f2" d="M 227.527344 173.578125 C 233.941406 195.671875 216.511719 226.675781 186.042969 227.355469 C 184.636719 227.355469 183.234375 227.285156 181.835938 227.144531 C 180.4375 227.007812 179.046875 226.800781 177.667969 226.523438 C 176.289062 226.25 174.929688 225.90625 173.582031 225.496094 C 172.238281 225.089844 170.914062 224.613281 169.617188 224.074219 C 168.320312 223.535156 167.050781 222.9375 165.808594 222.273438 C 164.570312 221.609375 163.367188 220.886719 162.199219 220.105469 C 161.027344 219.324219 159.902344 218.484375 158.816406 217.59375 C 157.730469 216.699219 156.6875 215.757812 155.695312 214.761719 C 154.699219 213.769531 153.757812 212.726562 152.867188 211.640625 C 151.976562 210.550781 151.140625 209.425781 150.359375 208.253906 C 149.578125 207.085938 148.855469 205.882812 148.195312 204.640625 C 147.53125 203.402344 146.929688 202.132812 146.394531 200.832031 C 145.855469 199.535156 145.382812 198.210938 144.976562 196.867188 C 144.566406 195.519531 144.226562 194.15625 143.953125 192.777344 C 143.675781 191.398438 143.472656 190.011719 143.332031 188.613281 C 143.195312 187.210938 143.128906 185.808594 143.128906 184.402344 C 143.128906 182.996094 143.195312 181.59375 143.332031 180.195312 C 143.472656 178.796875 143.675781 177.40625 143.953125 176.027344 C 144.226562 174.648438 144.566406 173.289062 144.976562 171.941406 C 145.382812 170.597656 145.855469 169.273438 146.394531 167.976562 C 146.929688 166.675781 147.53125 165.40625 148.195312 164.167969 C 148.855469 162.925781 149.578125 161.722656 150.359375 160.550781 C 151.140625 159.382812 151.976562 158.253906 152.867188 157.167969 C 153.757812 156.082031 154.699219 155.039062 155.695312 154.046875 C 156.6875 153.050781 157.726562 152.105469 158.816406 151.214844 C 159.902344 150.324219 161.027344 149.484375 162.195312 148.703125 C 163.367188 147.921875 164.570312 147.199219 165.808594 146.535156 C 167.050781 145.871094 168.316406 145.269531 169.617188 144.730469 C 170.914062 144.191406 172.238281 143.71875 173.582031 143.308594 C 174.925781 142.902344 176.289062 142.558594 177.667969 142.285156 C 179.046875 142.007812 180.4375 141.800781 181.835938 141.664062 C 183.234375 141.523438 184.636719 141.453125 186.042969 141.453125 C 186.707031 141.4375 187.371094 141.457031 188.035156 141.519531 L 188.824219 134.496094 C 187.160156 134.402344 185.496094 134.390625 183.832031 134.464844 C 182.164062 134.539062 180.507812 134.695312 178.859375 134.933594 C 177.207031 135.171875 175.574219 135.492188 173.957031 135.894531 C 172.339844 136.296875 170.746094 136.78125 169.175781 137.34375 C 167.609375 137.90625 166.070312 138.542969 164.566406 139.257812 C 163.058594 139.972656 161.59375 140.761719 160.167969 141.625 C 158.738281 142.488281 157.359375 143.417969 156.027344 144.417969 C 154.691406 145.417969 153.414062 146.484375 152.183594 147.613281 C 150.957031 148.738281 149.789062 149.925781 148.683594 151.171875 C 147.574219 152.417969 146.53125 153.714844 145.550781 155.0625 C 144.574219 156.414062 143.664062 157.808594 142.824219 159.25 C 141.984375 160.6875 141.222656 162.167969 140.53125 163.683594 C 139.839844 165.199219 139.226562 166.75 138.6875 168.328125 C 138.152344 169.90625 137.695312 171.507812 137.320312 173.128906 C 136.941406 174.753906 136.648438 176.394531 136.4375 178.046875 C 136.222656 179.699219 136.09375 181.359375 136.046875 183.027344 C 136 184.691406 136.039062 186.355469 136.15625 188.019531 C 136.277344 189.679688 136.480469 191.335938 136.765625 192.976562 C 137.050781 194.617188 137.417969 196.242188 137.867188 197.847656 C 138.3125 199.453125 138.839844 201.035156 139.445312 202.585938 C 140.050781 204.140625 140.734375 205.660156 141.492188 207.144531 C 142.25 208.628906 143.078125 210.070312 143.980469 211.472656 C 144.882812 212.875 145.851562 214.226562 146.890625 215.535156 C 147.925781 216.839844 149.027344 218.089844 150.1875 219.28125 C 151.351562 220.476562 152.570312 221.613281 153.847656 222.683594 C 155.121094 223.757812 156.449219 224.765625 157.824219 225.703125 C 159.199219 226.644531 160.621094 227.515625 162.085938 228.3125 C 163.546875 229.109375 165.046875 229.832031 166.582031 230.480469 C 168.117188 231.128906 169.683594 231.699219 171.273438 232.191406 C 172.867188 232.683594 174.480469 233.09375 176.113281 233.425781 C 177.75 233.757812 179.394531 234.003906 181.054688 234.171875 C 182.710938 234.335938 184.375 234.417969 186.042969 234.417969 C 217.230469 234.417969 235.410156 204.910156 236.054688 184.515625 C 236.179688 180.089844 235.589844 175.757812 234.285156 171.519531 Z M 227.527344 173.578125 " fill-opacity="1" fill-rule="nonzero"/><path fill="#6190f2" d="M 172.261719 172.492188 C 168.199219 169.648438 163.726562 167.789062 158.84375 166.910156 C 163.195312 171.972656 167.183594 177.304688 170.808594 182.90625 C 176.144531 191.164062 180.671875 199.84375 184.386719 208.945312 C 190.949219 194.695312 198.601562 181.054688 207.34375 168.027344 C 215.578125 155.757812 224.738281 144.226562 234.828125 133.433594 C 227.773438 136.945312 221.15625 141.140625 214.96875 146.019531 C 208.78125 150.894531 203.15625 156.351562 198.09375 162.390625 C 192.398438 169.152344 187.453125 176.425781 183.257812 184.210938 C 180.398438 179.546875 176.734375 175.640625 172.261719 172.492188 Z M 172.261719 172.492188 " fill-opacity="1" fill-rule="nonzero"/></svg>