<svg xmlns="http://www.w3.org/2000/svg" xmlns:xlink="http://www.w3.org/1999/xlink" width="500" zoomAndPan="magnify" viewBox="0 0 375 374.999991" height="500" preserveAspectRatio="xMidYMid meet" version="1.0"><defs><clipPath id="1dc5155886"><path d="M 92.617188 126.300781 L 282.367188 126.300781 L 282.367188 248.550781 L 92.617188 248.550781 Z M 92.617188 126.300781 " clip-rule="nonzero"/></clipPath></defs><g clip-path="url(#1dc5155886)"><path fill="#6190f2" d="M 282.074219 169.191406 L 282.074219 156.988281 L 282.046875 156.988281 C 282.058594 156.582031 281.988281 156.191406 281.839844 155.8125 C 281.691406 155.4375 281.472656 155.105469 281.1875 154.816406 C 280.902344 154.527344 280.570312 154.308594 280.195312 154.15625 C 279.820312 154.003906 279.429688 153.929688 279.023438 153.9375 L 258.929688 153.9375 L 281.179688 131.6875 C 281.617188 131.25 281.894531 130.730469 282.015625 130.125 C 282.136719 129.519531 282.078125 128.933594 281.839844 128.363281 C 281.605469 127.792969 281.230469 127.335938 280.71875 126.992188 C 280.207031 126.652344 279.640625 126.480469 279.023438 126.480469 L 144.785156 126.480469 C 143.945312 126.480469 143.226562 126.777344 142.628906 127.375 L 93.816406 176.1875 C 93.378906 176.625 93.101562 177.144531 92.980469 177.75 C 92.863281 178.355469 92.917969 178.941406 93.15625 179.511719 C 93.390625 180.082031 93.765625 180.539062 94.277344 180.878906 C 94.792969 181.222656 95.355469 181.394531 95.972656 181.394531 L 116.066406 181.394531 L 93.816406 203.644531 C 93.230469 204.242188 92.941406 204.960938 92.949219 205.800781 L 92.921875 205.800781 L 92.921875 218.003906 C 92.921875 218.410156 93 218.796875 93.15625 219.171875 C 93.308594 219.546875 93.53125 219.875 93.816406 220.160156 C 94.101562 220.449219 94.433594 220.667969 94.804688 220.824219 C 95.179688 220.976562 95.570312 221.054688 95.972656 221.054688 L 116.066406 221.054688 L 93.816406 243.304688 C 93.378906 243.742188 93.101562 244.261719 92.980469 244.867188 C 92.863281 245.472656 92.917969 246.058594 93.15625 246.628906 C 93.390625 247.199219 93.765625 247.65625 94.277344 248 C 94.792969 248.339844 95.355469 248.511719 95.972656 248.511719 L 230.210938 248.511719 C 231.050781 248.511719 231.773438 248.214844 232.367188 247.617188 L 281.179688 198.804688 C 281.617188 198.371094 281.894531 197.847656 282.015625 197.242188 C 282.136719 196.640625 282.078125 196.050781 281.839844 195.480469 C 281.605469 194.910156 281.230469 194.457031 280.71875 194.113281 C 280.207031 193.769531 279.640625 193.597656 279.023438 193.597656 L 258.929688 193.597656 L 281.179688 171.347656 C 281.777344 170.753906 282.074219 170.035156 282.074219 169.191406 Z M 146.050781 132.582031 L 271.660156 132.582031 L 228.945312 175.292969 L 103.339844 175.292969 Z M 124.695312 181.394531 L 230.210938 181.394531 C 231.050781 181.394531 231.773438 181.097656 232.367188 180.5 L 252.828125 160.039062 L 271.660156 160.039062 L 228.949219 202.75 L 103.339844 202.75 Z M 99.023438 208.851562 L 227.160156 208.851562 L 227.160156 214.953125 L 99.023438 214.953125 Z M 271.660156 199.699219 L 228.945312 242.410156 L 103.339844 242.410156 L 124.695312 221.054688 L 230.210938 221.054688 C 231.050781 221.054688 231.773438 220.757812 232.367188 220.160156 L 252.828125 199.699219 Z M 233.261719 210.640625 L 233.261719 207.0625 L 275.972656 164.351562 L 275.972656 167.929688 Z M 233.261719 210.640625 " fill-opacity="1" fill-rule="nonzero"/></g></svg>