<svg xmlns="http://www.w3.org/2000/svg" xmlns:xlink="http://www.w3.org/1999/xlink" width="500" zoomAndPan="magnify" viewBox="0 0 375 374.999991" height="500" preserveAspectRatio="xMidYMid meet" version="1.0"><defs><clipPath id="4c3066b770"><path d="M 92.011719 102.875 L 283 102.875 L 283 272.375 L 92.011719 272.375 Z M 92.011719 102.875 " clip-rule="nonzero"/></clipPath></defs><g clip-path="url(#4c3066b770)"><path fill="#6190f2" d="M 219.144531 144.511719 C 217.941406 144.511719 216.742188 144.550781 215.550781 144.617188 L 215.550781 125.722656 C 215.550781 119.167969 208.8125 113.234375 196.574219 109.011719 C 185.113281 105.054688 169.921875 102.875 153.796875 102.875 C 137.675781 102.875 122.484375 105.054688 111.023438 109.011719 C 98.785156 113.234375 92.046875 119.167969 92.046875 125.722656 L 92.046875 146.230469 C 92.046875 152.785156 98.785156 158.71875 111.023438 162.945312 C 113.863281 163.925781 116.9375 164.796875 120.195312 165.550781 L 120.195312 185.394531 C 120.195312 185.421875 120.195312 185.449219 120.195312 185.480469 C 112.425781 190 110.742188 194.722656 110.742188 197.953125 L 110.742188 218.464844 C 110.742188 222.789062 113.648438 229.0625 127.5 234.371094 C 137.195312 238.085938 150.273438 240.464844 164.445312 241.121094 C 175.617188 259.675781 195.957031 272.113281 219.144531 272.113281 C 254.324219 272.113281 282.945312 243.492188 282.945312 208.3125 C 282.945312 173.132812 254.324219 144.511719 219.144531 144.511719 Z M 108.710938 157.039062 L 108.710938 147.527344 C 108.710938 146.238281 107.664062 145.191406 106.375 145.191406 C 105.082031 145.191406 104.035156 146.238281 104.035156 147.527344 L 104.035156 154.757812 C 99.324219 152.066406 96.722656 149.09375 96.722656 146.230469 L 96.722656 125.722656 C 96.722656 121.445312 102.636719 116.851562 112.546875 113.429688 C 123.53125 109.636719 138.179688 107.550781 153.796875 107.550781 C 187.433594 107.550781 210.875 117.128906 210.875 125.722656 C 210.875 130 204.960938 134.59375 195.046875 138.015625 C 184.066406 141.804688 169.414062 143.894531 153.796875 143.894531 C 133.652344 143.894531 115.273438 140.421875 104.636719 134.601562 C 103.503906 133.980469 102.082031 134.398438 101.464844 135.53125 C 100.84375 136.664062 101.257812 138.082031 102.390625 138.703125 C 113.683594 144.878906 132.902344 148.570312 153.796875 148.570312 C 169.921875 148.570312 185.113281 146.390625 196.574219 142.433594 C 202.839844 140.269531 207.660156 137.660156 210.875 134.746094 L 210.875 145.050781 C 196.621094 146.902344 183.828125 153.476562 174.125 163.152344 C 171.347656 163.507812 168.507812 163.78125 165.621094 163.988281 L 165.621094 155.566406 C 165.621094 154.277344 164.574219 153.230469 163.285156 153.230469 C 161.992188 153.230469 160.945312 154.277344 160.945312 155.566406 L 160.945312 164.25 C 158.585938 164.351562 156.203125 164.402344 153.796875 164.402344 C 151.359375 164.402344 148.976562 164.351562 146.652344 164.253906 L 146.652344 155.566406 C 146.652344 154.277344 145.605469 153.230469 144.3125 153.230469 C 143.023438 153.230469 141.976562 154.277344 141.976562 155.566406 L 141.976562 163.996094 C 136.871094 163.636719 132.085938 163.050781 127.679688 162.289062 L 127.679688 153.402344 C 127.679688 152.113281 126.636719 151.066406 125.34375 151.066406 C 124.054688 151.066406 123.007812 152.113281 123.007812 153.402344 L 123.007812 161.382812 C 117.464844 160.1875 112.652344 158.703125 108.710938 157.039062 Z M 155.71875 201.425781 C 148.355469 200.144531 141.921875 198.328125 136.859375 196.199219 L 136.859375 186.6875 C 136.859375 185.398438 135.8125 184.351562 134.523438 184.351562 C 133.230469 184.351562 132.183594 185.398438 132.183594 186.6875 L 132.183594 193.929688 C 127.53125 191.28125 124.871094 188.328125 124.871094 185.394531 L 124.871094 173.988281 C 129.988281 178.613281 139.167969 182.414062 151.6875 184.921875 C 151.84375 184.953125 151.996094 184.96875 152.148438 184.96875 C 153.242188 184.96875 154.214844 184.203125 154.4375 183.089844 C 154.691406 181.824219 153.871094 180.59375 152.605469 180.339844 C 137.605469 177.332031 127.058594 171.964844 125.171875 166.589844 C 133.882812 168.214844 143.65625 169.078125 153.796875 169.078125 C 159.125 169.078125 164.363281 168.839844 169.4375 168.367188 C 161.984375 177.625 157.058594 188.996094 155.71875 201.425781 Z M 121.445312 190.195312 C 122.871094 192.882812 125.753906 195.882812 131.253906 198.757812 C 137.335938 201.933594 145.648438 204.464844 155.386719 206.117188 C 155.363281 206.847656 155.347656 207.578125 155.347656 208.3125 C 155.347656 210.667969 155.476562 212.992188 155.726562 215.285156 C 129.527344 212.601562 115.414062 204.457031 115.414062 197.953125 C 115.414062 195.402344 117.539062 192.695312 121.445312 190.195312 Z M 146.375 234.539062 L 146.375 225.632812 C 146.375 224.34375 145.328125 223.296875 144.039062 223.296875 C 142.746094 223.296875 141.699219 224.34375 141.699219 225.632812 L 141.699219 233.640625 C 136.113281 232.445312 131.316406 230.960938 127.40625 229.304688 L 127.40625 219.757812 C 127.40625 218.46875 126.359375 217.421875 125.070312 217.421875 C 123.777344 217.421875 122.730469 218.46875 122.730469 219.757812 L 122.730469 227.011719 C 117.976562 224.28125 115.414062 221.28125 115.414062 218.464844 L 115.414062 207.015625 C 117.542969 208.9375 120.566406 210.894531 124.824219 212.761719 C 132.871094 216.292969 144.0625 218.867188 156.429688 220.050781 C 157.5 225.769531 159.332031 231.222656 161.820312 236.300781 C 156.238281 235.953125 151.074219 235.34375 146.375 234.539062 Z M 219.144531 267.441406 C 197.386719 267.441406 178.339844 255.625 168.074219 238.074219 C 167.980469 237.800781 167.832031 237.550781 167.648438 237.335938 C 162.796875 228.757812 160.019531 218.855469 160.019531 208.3125 C 160.019531 175.710938 186.542969 149.1875 219.144531 149.1875 C 251.75 149.1875 278.273438 175.710938 278.273438 208.3125 C 278.273438 240.917969 251.746094 267.441406 219.144531 267.441406 Z M 219.144531 267.441406 " fill-opacity="1" fill-rule="nonzero"/></g><path fill="#6190f2" d="M 219.144531 163.101562 C 209.878906 163.101562 200.96875 165.886719 193.382812 171.152344 C 192.324219 171.890625 192.0625 173.347656 192.796875 174.40625 C 193.535156 175.46875 194.992188 175.730469 196.050781 174.992188 C 202.851562 170.273438 210.835938 167.777344 219.144531 167.777344 C 241.5 167.777344 259.683594 185.960938 259.683594 208.3125 C 259.683594 230.667969 241.5 248.851562 219.144531 248.851562 C 196.792969 248.851562 178.609375 230.667969 178.609375 208.3125 C 178.609375 199.082031 181.632812 190.382812 187.351562 183.164062 C 188.152344 182.148438 187.984375 180.679688 186.972656 179.878906 C 185.960938 179.078125 184.488281 179.246094 183.6875 180.257812 C 177.304688 188.316406 173.933594 198.015625 173.933594 208.3125 C 173.933594 233.246094 194.214844 253.527344 219.144531 253.527344 C 244.078125 253.527344 264.359375 233.246094 264.359375 208.3125 C 264.359375 183.382812 244.078125 163.101562 219.144531 163.101562 Z M 219.144531 163.101562 " fill-opacity="1" fill-rule="nonzero"/><path fill="#6190f2" d="M 219.144531 178.742188 C 217.855469 178.742188 216.808594 179.789062 216.808594 181.078125 L 216.808594 186.820312 C 211.289062 187.914062 207.117188 192.789062 207.117188 198.621094 C 207.117188 205.253906 212.511719 210.652344 219.144531 210.652344 C 223.203125 210.652344 226.5 213.953125 226.5 218.007812 C 226.5 222.0625 223.203125 225.363281 219.144531 225.363281 C 216.542969 225.363281 214.183594 224.027344 212.839844 221.792969 C 212.171875 220.6875 210.738281 220.332031 209.632812 220.996094 C 208.523438 221.664062 208.167969 223.101562 208.835938 224.207031 C 210.59375 227.125 213.523438 229.144531 216.808594 229.804688 L 216.808594 235.550781 C 216.808594 236.839844 217.855469 237.886719 219.144531 237.886719 C 220.4375 237.886719 221.484375 236.839844 221.484375 235.550781 L 221.484375 229.808594 C 227.003906 228.714844 231.175781 223.839844 231.175781 218.007812 C 231.175781 211.375 225.78125 205.976562 219.144531 205.976562 C 215.089844 205.976562 211.792969 202.675781 211.792969 198.621094 C 211.792969 194.566406 215.089844 191.265625 219.144531 191.265625 C 221.847656 191.265625 224.328125 192.742188 225.617188 195.121094 C 226.234375 196.257812 227.652344 196.675781 228.785156 196.0625 C 229.921875 195.445312 230.34375 194.027344 229.726562 192.890625 C 227.996094 189.703125 224.957031 187.511719 221.484375 186.824219 L 221.484375 181.078125 C 221.484375 179.789062 220.4375 178.742188 219.144531 178.742188 Z M 219.144531 178.742188 " fill-opacity="1" fill-rule="nonzero"/></svg>